<svg xmlns="http://www.w3.org/2000/svg" width="428.652" height="31.567" viewBox="0 0 428.652 31.567"><defs><style>.a{fill:#84d3f2;}.b{fill:#fff;}</style></defs><g transform="translate(-434.174 207.055)"><path class="a" d="M-383.417-32.184a.874.874,0,0,0-.757-.926H-396.04a.875.875,0,0,0-.8.926.889.889,0,0,0,.8.926h11.866A.889.889,0,0,0-383.417-32.184Zm3.787,16.5a.86.86,0,0,0-.779-.884h-3.472a1.108,1.108,0,0,1-1.22-1.22V-24.42h4.713a.874.874,0,0,0,.757-.926.866.866,0,0,0-.757-.9h-15.7a.867.867,0,0,0-.736.9.875.875,0,0,0,.736.926h3.324c-.042,3.64-.821,6.207-3.093,7.427a.773.773,0,0,0-.4.715,1.03,1.03,0,0,0,.989.989.594.594,0,0,0,.316-.084c2.861-1.536,3.955-4.839,4.019-9.047h4v6.985a2.551,2.551,0,0,0,2.672,2.672h3.85A.874.874,0,0,0-379.629-15.689Zm22.365-10.52a.675.675,0,0,0-.61-.694h-8.163v-1.473h6.017a.72.72,0,0,0,.652-.736.709.709,0,0,0-.652-.694h-6.017v-1.515h6.017a.714.714,0,0,0,.652-.715.725.725,0,0,0-.652-.694h-6.017v-.295c0-.379-.358-.694-.9-.694-.568,0-.947.316-.947.694v.295h-6.017a.708.708,0,0,0-.631.694.7.7,0,0,0,.631.715h6.017v1.515h-6.017a.691.691,0,0,0-.631.694.7.7,0,0,0,.631.736h6.017V-26.9h-8.163a.675.675,0,0,0-.61.694.667.667,0,0,0,.61.715h4.881l-2.041,1.6a1.333,1.333,0,0,0-.421.968,1.059,1.059,0,0,0,1.052,1.073h2.925l-1.978,1.662h-3.493a.742.742,0,0,0-.673.757.755.755,0,0,0,.673.8h7.175v3.661a.933.933,0,0,0,.968.821.9.9,0,0,0,.947-.821v-3.661h.652a14.824,14.824,0,0,0,5.491-.9l.484.821a.679.679,0,0,0,.652.295.856.856,0,0,0,.863-.8.483.483,0,0,0-.084-.295l-2.272-3.682a.667.667,0,0,0-.61-.316.841.841,0,0,0-.863.8.56.56,0,0,0,.063.252l.926,1.515a13.7,13.7,0,0,1-4.65.757h-3.808l3.7-3.2a.639.639,0,0,0,.168-.442.793.793,0,0,0-.821-.821.625.625,0,0,0-.4.147l-1.62,1.368h-3.219c-.147,0-.21-.063-.21-.147a.257.257,0,0,1,.084-.189l1.473-1.241a.448.448,0,0,0,.147-.337.605.605,0,0,0-.189-.442h12.2A.667.667,0,0,0-357.264-26.209Zm-2.609,9.8c0-.358-.358-.947-.757-.947-.337,0-.947.316-.947.694,0,.358.337.968.715.968C-360.5-15.689-359.873-16-359.873-16.4Zm-12.477.21c0-.442-.61-.694-.968-.694-.442,0-.694.589-.694.947,0,.442.61.694.989.694C-372.6-15.247-372.35-15.836-372.35-16.194Zm35.431-3.977c0-1.915-1.557-5.449-6.48-5.449a12.453,12.453,0,0,0-6.859,2.125.527.527,0,0,1-.231.105c-.084,0-.126-.063-.126-.168a.411.411,0,0,1,.021-.147c.295-1.326.673-3.6.9-5.744h5.428c.358,0,.631-.379.631-.926,0-.568-.274-.926-.631-.926h-5.26c.021-.379.042-.757.042-1.094v-.021c0-.379-.379-.652-.968-.652-1.22,0-.968.926-1.052,1.767h-3.093c-.379,0-.652.358-.652.926,0,.547.274.926.652.926h2.946a48.082,48.082,0,0,1-1.262,7.532.583.583,0,0,0-.021.189c0,.568.8.947,1.389.947a.842.842,0,0,0,.568-.189,12.589,12.589,0,0,1,7.3-2.777c3.745,0,4.776,2.588,4.776,3.619a5.721,5.721,0,0,1-1.283,3.345.717.717,0,0,0-.147.463,1.151,1.151,0,0,0,1.115,1.01.587.587,0,0,0,.421-.168A7.308,7.308,0,0,0-336.919-20.17Zm19.82-2.756c0-2.861-2.041-4.755-5.26-4.776v-1.41c0-.295-.295-.526-.757-.526s-.757.231-.757.526v1.41h-4.755c-.042-.547-.063-1.031-.105-1.41-.042-.316-.4-.547-.884-.547-.463,0-.757.252-.757.568,0,.463.084.926.105,1.389h-1.936c-.316,0-.568.316-.568.778,0,.5.253.8.568.8h2.02c.147,3.387.21,8.163.231,10.962,0,.316.316.568.8.568s.821-.252.821-.568c-.021-2.651-.063-7.511-.21-10.962h4.671v3.24c0,.316.295.547.757.547s.757-.231.757-.547v-3.24c2.588.084,3.6,1.6,3.6,3.156a4.45,4.45,0,0,1-1.389,3.093.577.577,0,0,0-.168.379.873.873,0,0,0,.926.9.6.6,0,0,0,.4-.189A5.714,5.714,0,0,0-317.1-22.927Zm22.071,1.389v-.084c0-.421-.4-.778-1.094-.778a.7.7,0,0,0-.757.5c-.526,3.661-1.725,5.533-3.977,5.533-1.788,0-2.378-.968-2.378-3.135V-24c0-2.293-1.283-3.072-2.588-3.072a5.5,5.5,0,0,0-3.829,2.041c.5-2.9.989-5.954,1.094-7.217v-.063c0-.337-.379-.61-.926-.61-.589,0-.968.295-1.01.673-.21,2.23-1.557,9.762-2.1,12.582v.105c0,.421.463.736,1.052.736.5,0,.778-.21.842-.5.168-.757.379-1.915.631-3.219,1.073-1.41,2.378-2.546,3.514-2.546.968,0,1.41.358,1.41,1.809v3.892c0,3.514,1.389,4.944,4.271,4.944C-297.553-14.448-295.723-16.594-295.028-21.538Zm21.271-3.387c0-.568-.274-.926-.631-.926h-7.28c-.358,0-.652.358-.652.926,0,.547.295.926.652.926h7.28C-274.031-24-273.757-24.378-273.757-24.925Zm-5.555-5.618c0-.547-.295-.9-.652-.9h-6.607l.105-.989c0-.316-.358-.589-.9-.589-1.115,0-1.01.778-1.094,1.578h-2.777c-.379,0-.652.358-.652.9,0,.568.274.926.652.926h2.525c-.547,3.808-1.494,9.868-1.936,12.119,0,.042-.021.084-.021.126,0,.442.5.694,1.031.694.421,0,.757-.21.8-.5.421-2.335,1.452-8.521,2.02-12.435h6.859C-279.606-29.617-279.311-29.975-279.311-30.543Zm3.177,14.833c0-.547-.295-.9-.652-.9h-3.219c-3.514,0-4.082-1.052-4.082-2,0-1.031.652-1.62.652-1.936,0-.358-.589-.694-1.073-.694a.7.7,0,0,0-.61.295,5.4,5.4,0,0,0-.842,2.651c0,1.809,1.347,3.514,5.744,3.514h3.43C-276.429-14.784-276.134-15.142-276.134-15.71Zm23.375-4.46c0-1.915-1.557-5.449-6.48-5.449a12.453,12.453,0,0,0-6.859,2.125.527.527,0,0,1-.231.105c-.084,0-.126-.063-.126-.168a.41.41,0,0,1,.021-.147c.295-1.326.673-3.6.9-5.744h5.428c.358,0,.631-.379.631-.926,0-.568-.274-.926-.631-.926h-5.26c.021-.379.042-.757.042-1.094v-.021c0-.379-.379-.652-.968-.652-1.22,0-.968.926-1.052,1.767h-3.093c-.379,0-.652.358-.652.926,0,.547.274.926.652.926h2.946a48.085,48.085,0,0,1-1.262,7.532.583.583,0,0,0-.021.189c0,.568.8.947,1.389.947a.842.842,0,0,0,.568-.189,12.589,12.589,0,0,1,7.3-2.777c3.745,0,4.776,2.588,4.776,3.619a5.721,5.721,0,0,1-1.283,3.345.717.717,0,0,0-.147.463,1.151,1.151,0,0,0,1.115,1.01.587.587,0,0,0,.421-.168A7.308,7.308,0,0,0-252.759-20.17Zm18.789-11.046c0-.61-.421-1.157-.863-1.157-.5,0-5.47,2.756-6.249,3.2-.295.168-.568.358-.842.526l-1.389-3.955a.643.643,0,0,0-.673-.4c-.526,0-1.241.421-1.241.926a.615.615,0,0,0,.042.189l1.6,4.4c-2.861,2.167-4.166,4.376-4.166,6.985,0,2.9,2.062,5.533,7.427,5.533h3.85c.358,0,.652-.4.652-.968,0-.526-.295-.9-.652-.9h-3.766c-3.913,0-5.555-1.83-5.555-3.682,0-2.462,1.725-4.671,5.555-7.006,1.389-.842,4.145-2.251,5.891-3.03A.655.655,0,0,0-233.971-31.216Zm18.873-.968a.874.874,0,0,0-.757-.926h-11.866a.875.875,0,0,0-.8.926.889.889,0,0,0,.8.926h11.866A.889.889,0,0,0-215.1-32.184Zm3.787,16.5a.86.86,0,0,0-.778-.884h-3.472a1.108,1.108,0,0,1-1.22-1.22V-24.42h4.713a.874.874,0,0,0,.757-.926.866.866,0,0,0-.757-.9h-15.7a.867.867,0,0,0-.736.9.875.875,0,0,0,.736.926h3.324c-.042,3.64-.821,6.207-3.093,7.427a.773.773,0,0,0-.4.715,1.03,1.03,0,0,0,.989.989.594.594,0,0,0,.316-.084c2.861-1.536,3.956-4.839,4.019-9.047h4v6.985a2.551,2.551,0,0,0,2.672,2.672h3.85A.874.874,0,0,0-211.311-15.689Zm22.365-10.52a.675.675,0,0,0-.61-.694h-8.163v-1.473h6.017a.72.72,0,0,0,.652-.736.709.709,0,0,0-.652-.694h-6.017v-1.515h6.017a.714.714,0,0,0,.652-.715.725.725,0,0,0-.652-.694h-6.017v-.295c0-.379-.358-.694-.9-.694-.568,0-.947.316-.947.694v.295h-6.017a.708.708,0,0,0-.631.694.7.7,0,0,0,.631.715h6.017v1.515h-6.017a.691.691,0,0,0-.631.694.7.7,0,0,0,.631.736h6.017V-26.9h-8.163a.675.675,0,0,0-.61.694.667.667,0,0,0,.61.715h4.881l-2.041,1.6a1.333,1.333,0,0,0-.421.968,1.059,1.059,0,0,0,1.052,1.073h2.925l-1.978,1.662h-3.493a.742.742,0,0,0-.673.757.755.755,0,0,0,.673.8h7.175v3.661a.933.933,0,0,0,.968.821.9.9,0,0,0,.947-.821v-3.661h.652a14.824,14.824,0,0,0,5.491-.9l.484.821a.679.679,0,0,0,.652.295.856.856,0,0,0,.863-.8.483.483,0,0,0-.084-.295l-2.272-3.682a.667.667,0,0,0-.61-.316.841.841,0,0,0-.863.8.56.56,0,0,0,.063.252l.926,1.515a13.7,13.7,0,0,1-4.65.757h-3.808l3.7-3.2a.639.639,0,0,0,.168-.442.793.793,0,0,0-.821-.821.625.625,0,0,0-.4.147l-1.62,1.368h-3.219c-.147,0-.21-.063-.21-.147a.257.257,0,0,1,.084-.189l1.473-1.241a.448.448,0,0,0,.147-.337.606.606,0,0,0-.189-.442h12.2A.667.667,0,0,0-188.945-26.209Zm-2.609,9.8c0-.358-.358-.947-.757-.947-.337,0-.947.316-.947.694,0,.358.337.968.715.968C-192.186-15.689-191.554-16-191.554-16.4Zm-12.477.21c0-.442-.61-.694-.968-.694-.442,0-.694.589-.694.947,0,.442.61.694.989.694C-204.283-15.247-204.031-15.836-204.031-16.194Zm34.947-14.433a1.618,1.618,0,0,0-1.431-1.283h-6.417c-.358,0-.652.379-.652.947s.295.926.652.926h5.007c.189,0,.316.084.316.189a.366.366,0,0,1-.126.231l-1.178,1.3a.626.626,0,0,0-.105.316c0,.421.568.842,1.052.842a.6.6,0,0,0,.463-.21l2.314-2.9A.517.517,0,0,0-169.084-30.627ZM-168.894-16c0-.568-.274-.926-.652-.926h-5.765c-2.988,0-4.271-.884-4.271-2.735,0-1.241.8-2.083.8-2.42,0-.4-.589-.715-1.115-.715a.739.739,0,0,0-.715.358,6.486,6.486,0,0,0-.926,3.093c0,2.23,1.094,4.25,5.912,4.25h6.081C-169.168-15.1-168.894-15.457-168.894-16Zm-15.338,1.094V-32.394c0-.337-.337-.61-.884-.61-.568,0-.9.274-.9.61v17.442c0,.358.337.673.9.673C-184.569-14.279-184.233-14.553-184.233-14.91Zm35.578-9.384c0-5.344-2.083-8.311-7.659-8.5l-.652-.021-6.922.316c-.379.021-.673.379-.673.947,0,.547.274.968.631.947l7.048-.316h.61c3.934,0,5.66,2.209,5.66,6.712,0,4.587-4.5,7.111-8.206,7.111h-.547c-.337,0-.61.358-.61.863s.231,1.031.673,1.031h.526C-153.577-15.2-148.654-18.466-148.654-24.294Zm22.05.989v-.063a26.384,26.384,0,0,0-1.115-4.566.706.706,0,0,0-.736-.4c-.694,0-1.052.4-1.052.757a.312.312,0,0,0,.021.147,29.978,29.978,0,0,1,1.031,4.25c.042.316.337.547.8.547C-127.088-22.632-126.6-22.906-126.6-23.305Zm-8.184,4.061A1.274,1.274,0,0,0-135.9-20.36a.526.526,0,0,0-.4.168L-139.27-17.2a.549.549,0,0,1-.421.189.582.582,0,0,1-.189-.021c-1.157-.379-1.978-1.936-1.978-4.145V-32.163c0-.358-.4-.652-.947-.652-.589,0-.968.295-.968.652v11.172c0,2.819,1.157,5.407,3.514,6.059a2.663,2.663,0,0,0,.547.084,1.48,1.48,0,0,0,1.094-.463l3.64-3.493A.606.606,0,0,0-134.789-19.245Zm29.582-11.74c0-.5-.231-1.073-.8-1.073h-16.853c-.358,0-.652.379-.652.947s.295.926.652.926l12.182-.063q.252,0,.252.063t-.252.126c-7.722,2.146-10.415,5.113-10.415,8.563,0,2.546,1.557,5.365,5.618,6.375a.463.463,0,0,0,.168.021c.5,0,.821-.568.821-1.157a.718.718,0,0,0-.463-.736c-2.84-.884-4.166-2.567-4.166-4.587,0-3.261,2.988-5.681,13.423-8.647C-105.333-30.333-105.207-30.543-105.207-30.985Zm19.967.61c0-.337-.358-.968-.736-.968-.316,0-.926.358-.926.736,0,.358.337.947.715.947C-85.85-29.659-85.24-29.975-85.24-30.375Zm0,5.007c0-.4-.61-.715-.926-.715-.4,0-.736.589-.736.947,0,.379.61.736.947.736C-85.6-24.4-85.24-25.052-85.24-25.367Zm1.515,4.4a.777.777,0,0,0-.694-.821h-8.121v-1.178h1.788a1.563,1.563,0,0,0,1.578-1.578v-6.017a1.545,1.545,0,0,0-1.578-1.557h-2.462l.274-.526a.594.594,0,0,0,.084-.316c0-.316-.295-.589-.8-.589a.875.875,0,0,0-.863.484l-.5.947h-1.094A1.545,1.545,0,0,0-97.7-30.564v6.017a1.563,1.563,0,0,0,1.578,1.578h1.788v1.178h-8.142a.777.777,0,0,0-.694.821.763.763,0,0,0,.694.821h6.543a9.642,9.642,0,0,1-5.113,3.408.793.793,0,0,0-.61.757.841.841,0,0,0,.8.863.358.358,0,0,0,.147-.021,11.122,11.122,0,0,0,6.375-4.418v4.545a.851.851,0,0,0,.9.757.844.844,0,0,0,.884-.757v-4.524a11.353,11.353,0,0,0,6.354,4.4.312.312,0,0,0,.147.021.867.867,0,0,0,.8-.842.8.8,0,0,0-.61-.778,9.665,9.665,0,0,1-5.092-3.408h6.522A.763.763,0,0,0-83.725-20.97Zm-16.369-9.594c0-.4-.589-.757-.947-.757-.379,0-.736.673-.736.968,0,.379.61.715.947.715C-100.431-29.638-100.094-30.206-100.094-30.564Zm-.021,5.449c0-.358-.316-.947-.715-.947-.337,0-.947.316-.947.715,0,.316.379.968.736.968S-100.115-24.736-100.115-25.115Zm9.279-3.114h-5.218V-30.08a.5.5,0,0,1,.5-.5h4.208a.486.486,0,0,1,.5.5Zm0,3.261a.486.486,0,0,1-.5.5H-95.55a.5.5,0,0,1-.5-.5V-26.8h5.218Zm24.2,9.531c0-.568-.231-1.073-.652-1.073h-.084a11.168,11.168,0,0,1-1.515.105c-3.7,0-6.312-.863-6.312-5.491V-32.331c0-.358-.379-.652-.947-.652-.589,0-.947.295-.947.652v10.625c0,5.05,2.651,7.175,8.079,7.175a16.511,16.511,0,0,0,1.873-.147C-66.851-14.721-66.641-15.016-66.641-15.436Zm21.5-.61a.638.638,0,0,0-.252-.526A83.6,83.6,0,0,0-54.4-21.9c-1.431-.736-1.873-1.473-1.873-2.335v-.379c0-1.178.652-1.894,2.251-2.756l6.543-3.577a.54.54,0,0,0,.274-.526c0-.526-.421-1.094-.863-1.094a.48.48,0,0,0-.231.063L-55.3-28.67c-1.6.863-2.9,2.125-2.9,3.955v.484c0,1.746.736,2.735,2.8,3.85a89.937,89.937,0,0,1,8.963,5.428.475.475,0,0,0,.316.105A1.231,1.231,0,0,0-45.138-16.047Zm15.254-15.948c0-.379-.168-.926-.652-.926-.379,0-.968.147-.968.61,0,.358.168.989.652.989C-30.473-31.321-29.884-31.49-29.884-31.995Zm9.047,4.818v-1.873a1.568,1.568,0,0,0-1.578-1.6h-1.262L-23-32.521a.416.416,0,0,0,.042-.231.851.851,0,0,0-.9-.757.88.88,0,0,0-.842.484l-.884,2.378H-38.237a1.567,1.567,0,0,0-1.578,1.6v1.873a.844.844,0,0,0,.884.736.8.8,0,0,0,.884-.694v-1.283a.521.521,0,0,1,.526-.526h14.412a.5.5,0,0,1,.5.526v1.283c0,.358.358.694.9.694A.822.822,0,0,0-20.837-27.177Zm-14.707-4.566c0-.379-.147-.926-.652-.926-.4,0-.947.147-.947.631,0,.379.147.968.652.968C-36.133-31.069-35.544-31.258-35.544-31.742Zm12.918,11.025a.815.815,0,0,0-.736-.842h-5.891V-21.9c0-.358.231-.652.715-.884.947-.337,4.376-1.662,4.376-3.135a1.108,1.108,0,0,0-1.22-1.01h-7.974a.785.785,0,0,0-.694.842.765.765,0,0,0,.694.778h6.375q.252,0,.252.126c0,.337-2.377,1.326-2.882,1.494a1.987,1.987,0,0,0-1.515,2v.126h-5.786a.815.815,0,0,0-.715.842.829.829,0,0,0,.715.884h5.786v2.693a.907.907,0,0,1-.884.9h-.947a.756.756,0,0,0-.673.842.8.8,0,0,0,.673.884h1.473a2.154,2.154,0,0,0,2.23-2.23v-3.093h5.891A.829.829,0,0,0-22.626-20.717ZM-.534-32.1c0-.252-.295-1.094-.715-1.094-.295,0-1.031.316-1.031.778,0,.21.295,1.031.736,1.031C-1.312-31.385-.534-31.679-.534-32.1Zm.989,3.114c0-.252-.295-1.073-.715-1.073-.295,0-1.031.295-1.031.757,0,.21.295,1.052.736,1.052C-.323-28.25.455-28.565.455-28.986Zm-.947,9.552a.7.7,0,0,0-.4-.694c-.8-.337-1.662-.694-2.525-1.01V-31.385a.983.983,0,0,0-1.073-1.031h-6.649c-.337,0-.61.337-.61.863s.274.863.61.863h5.87v3.619h-5.87c-.337,0-.61.358-.61.863,0,.526.274.884.61.884h5.87v3.577A12.774,12.774,0,0,0-8.634-22.3c-3.514,0-5.071,2.062-5.071,3.934,0,1.746.968,3.977,5.113,3.977,3.619,0,5.176-2.041,5.176-4.545v-.4c.337.147,1.978.968,2.167.968C-.828-18.361-.492-18.908-.492-19.434Zm-15.675,4.4v-13.97c0-.358-.337-.631-.9-.631-.547,0-.884.274-.884.631v13.97c0,.379.337.652.884.652C-16.5-14.384-16.166-14.658-16.166-15.037Zm10.9-4.166c0,1.788-1.052,3.177-3.493,3.177-2.693,0-3.261-1.431-3.261-2.335,0-1.3,1.389-2.335,3.261-2.335a10.989,10.989,0,0,1,3.493.652ZM14.51-31.342c0-.547-.295-.9-.652-.9H5.968c-.358,0-.631.358-.631.9s.274.9.631.9h7.89C14.215-30.438,14.51-30.8,14.51-31.342Zm5.3,9.447c0-3.766-2.356-6.123-6.8-6.038l-1.01.021-7.175.379c-.4.021-.673.358-.673.947,0,.5.274.989.652.968l7.3-.421c.252-.021.5-.021.757-.021,3.324,0,4.965,1.557,4.965,4.166,0,3.135-1.873,5.092-7.49,5.576-.337.021-.61.337-.61.842,0,.589.295,1.031.694,1.031h.021C17.855-14.448,19.812-18.151,19.812-21.9Z" transform="translate(837.014 -167.335)"/><path class="b" d="M-366.942-33.72c-.568,0-.947.316-.947.694v.295h-6.017a.707.707,0,0,0-.631.694.7.7,0,0,0,.631.715h6.017v1.515h-6.017a.691.691,0,0,0-.631.694.7.7,0,0,0,.631.736h6.017V-26.9h-8.164a.675.675,0,0,0-.61.694.667.667,0,0,0,.61.715h4.881l-2.041,1.6a1.333,1.333,0,0,0-.421.968,1.059,1.059,0,0,0,1.052,1.073h2.925l-1.978,1.662h-3.493a.742.742,0,0,0-.673.757.755.755,0,0,0,.673.8h7.175v3.661a.933.933,0,0,0,.968.821.9.9,0,0,0,.947-.821v-3.661h.652a14.824,14.824,0,0,0,5.491-.9l.484.821a.679.679,0,0,0,.652.295.856.856,0,0,0,.863-.8.483.483,0,0,0-.084-.295l-2.272-3.682a.667.667,0,0,0-.61-.316.841.841,0,0,0-.863.8.56.56,0,0,0,.063.252l.926,1.515a13.7,13.7,0,0,1-4.65.757h-3.808l3.7-3.2a.639.639,0,0,0,.168-.442.793.793,0,0,0-.821-.821.625.625,0,0,0-.4.147l-1.62,1.368h-3.219c-.147,0-.21-.063-.21-.147a.257.257,0,0,1,.084-.189l1.473-1.241a.448.448,0,0,0,.147-.337.606.606,0,0,0-.189-.442h12.2a.667.667,0,0,0,.61-.715.675.675,0,0,0-.61-.694h-8.163v-1.473h6.017a.72.72,0,0,0,.652-.736.709.709,0,0,0-.652-.694h-6.017v-1.515h6.017a.714.714,0,0,0,.652-.715.725.725,0,0,0-.652-.694h-6.017v-.295c0-.379-.358-.694-.9-.694m168.319,0c-.568,0-.947.316-.947.694v.295h-6.017a.708.708,0,0,0-.631.694.7.7,0,0,0,.631.715h6.017v1.515h-6.017a.691.691,0,0,0-.631.694.7.7,0,0,0,.631.736h6.017V-26.9h-8.163a.675.675,0,0,0-.61.694.667.667,0,0,0,.61.715h4.881l-2.041,1.6a1.333,1.333,0,0,0-.421.968,1.059,1.059,0,0,0,1.052,1.073h2.925l-1.978,1.662h-3.493a.742.742,0,0,0-.673.757.755.755,0,0,0,.673.8h7.175v3.661a.933.933,0,0,0,.968.821.9.9,0,0,0,.947-.821v-3.661h.652a14.824,14.824,0,0,0,5.491-.9l.484.821a.679.679,0,0,0,.652.295.856.856,0,0,0,.863-.8.483.483,0,0,0-.084-.295l-2.272-3.682a.667.667,0,0,0-.61-.316.841.841,0,0,0-.863.8.56.56,0,0,0,.063.252l.926,1.515a13.7,13.7,0,0,1-4.65.757h-3.808l3.7-3.2a.639.639,0,0,0,.168-.442.793.793,0,0,0-.821-.821.625.625,0,0,0-.4.147l-1.62,1.368h-3.219c-.147,0-.21-.063-.21-.147a.257.257,0,0,1,.084-.189l1.473-1.241a.448.448,0,0,0,.147-.337.606.606,0,0,0-.189-.442h12.2a.667.667,0,0,0,.61-.715.675.675,0,0,0-.61-.694h-8.163v-1.473h6.017a.72.72,0,0,0,.652-.736.709.709,0,0,0-.652-.694h-6.017v-1.515h6.017a.714.714,0,0,0,.652-.715.725.725,0,0,0-.652-.694h-6.017v-.295c0-.379-.358-.694-.9-.694m104.968.168a.874.874,0,0,0-.863.484l-.505.947h-1.094A1.545,1.545,0,0,0-97.7-30.564v6.017a1.563,1.563,0,0,0,1.578,1.578h1.788v1.178h-8.142a.777.777,0,0,0-.694.821.763.763,0,0,0,.694.821h6.543a9.643,9.643,0,0,1-5.113,3.408.793.793,0,0,0-.61.757.841.841,0,0,0,.8.863.357.357,0,0,0,.147-.021,11.122,11.122,0,0,0,6.375-4.418v4.545a.851.851,0,0,0,.9.757.844.844,0,0,0,.884-.757v-4.524a11.353,11.353,0,0,0,6.354,4.4.312.312,0,0,0,.147.021.867.867,0,0,0,.8-.842.8.8,0,0,0-.61-.778,9.665,9.665,0,0,1-5.092-3.408h6.522a.763.763,0,0,0,.694-.821.777.777,0,0,0-.694-.821h-8.121v-1.178h1.788a1.563,1.563,0,0,0,1.578-1.578v-6.017a1.545,1.545,0,0,0-1.578-1.557h-2.462l.274-.526a.593.593,0,0,0,.084-.316c0-.316-.295-.589-.8-.589m2.819,5.323h-5.218V-30.08a.5.5,0,0,1,.5-.5h4.208a.486.486,0,0,1,.5.5v1.852m-.5,3.766H-95.55a.5.5,0,0,1-.5-.5V-26.8h5.218v1.83a.486.486,0,0,1-.5.5m67.475-9.047a.88.88,0,0,0-.842.484l-.884,2.378H-38.237a1.568,1.568,0,0,0-1.578,1.6v1.873a.844.844,0,0,0,.884.736.8.8,0,0,0,.884-.694v-1.283a.521.521,0,0,1,.526-.526h14.412a.5.5,0,0,1,.5.526v1.283c0,.358.358.694.9.694a.822.822,0,0,0,.863-.736v-1.873a1.568,1.568,0,0,0-1.578-1.6h-1.262L-23-32.521a.416.416,0,0,0,.042-.231.852.852,0,0,0-.9-.757m22.618.316c-.295,0-1.031.316-1.031.778,0,.21.295,1.031.736,1.031.231,0,1.01-.295,1.01-.715,0-.252-.295-1.094-.715-1.094m-394.791.084a.875.875,0,0,0-.8.926.889.889,0,0,0,.8.926h11.866a.889.889,0,0,0,.757-.926.874.874,0,0,0-.757-.926H-396.04m168.319,0a.875.875,0,0,0-.8.926.889.889,0,0,0,.8.926h11.866a.889.889,0,0,0,.757-.926.874.874,0,0,0-.757-.926h-11.866m-122.725.042c-1.22,0-.968.926-1.052,1.767h-3.093c-.379,0-.652.358-.652.926,0,.547.274.926.652.926h2.946a48.079,48.079,0,0,1-1.262,7.532.584.584,0,0,0-.021.189c0,.568.8.947,1.389.947a.842.842,0,0,0,.568-.189,12.589,12.589,0,0,1,7.3-2.777c3.745,0,4.776,2.588,4.776,3.619a5.721,5.721,0,0,1-1.283,3.345.717.717,0,0,0-.147.463c0,.766,1.128,1.249,1.536.842a7.309,7.309,0,0,0,1.873-4.692c0-1.915-1.557-5.449-6.48-5.449a12.453,12.453,0,0,0-6.859,2.125c-.245.147-.358.121-.358-.063a.412.412,0,0,1,.021-.147c.295-1.325.673-3.6.9-5.744h5.428c.358,0,.631-.379.631-.926,0-.568-.274-.926-.631-.926h-5.26c.021-.379.042-.757.042-1.094v-.021c0-.379-.379-.652-.968-.652m84.159,0c-1.22,0-.968.926-1.052,1.767h-3.093c-.379,0-.652.358-.652.926,0,.547.274.926.652.926h2.946a48.086,48.086,0,0,1-1.262,7.532.584.584,0,0,0-.021.189c0,.568.8.947,1.389.947a.842.842,0,0,0,.568-.189,12.589,12.589,0,0,1,7.3-2.777c3.745,0,4.776,2.588,4.776,3.619a5.72,5.72,0,0,1-1.283,3.345.717.717,0,0,0-.147.463c0,.766,1.128,1.249,1.536.842a7.308,7.308,0,0,0,1.873-4.692c0-1.915-1.557-5.449-6.48-5.449a12.453,12.453,0,0,0-6.859,2.125c-.245.147-.358.121-.358-.063a.411.411,0,0,1,.021-.147c.295-1.325.673-3.6.9-5.744h5.428c.358,0,.631-.379.631-.926,0-.568-.274-.926-.631-.926h-5.26c.021-.379.042-.757.042-1.094v-.021c0-.379-.379-.652-.968-.652m-21.082.042c-1.115,0-1.01.779-1.094,1.578h-2.777c-.379,0-.652.358-.652.9,0,.568.274.926.652.926h2.525c-.547,3.808-1.494,9.868-1.936,12.119,0,.042-.021.084-.021.126,0,.442.505.694,1.031.694.421,0,.757-.21.8-.5.421-2.335,1.452-8.521,2.02-12.435h6.859c.358,0,.652-.358.652-.926,0-.547-.295-.9-.652-.9h-6.606l.105-.989c0-.316-.358-.589-.9-.589m43.384.021c-.526,0-1.241.421-1.241.926a.614.614,0,0,0,.042.189l1.6,4.4c-2.861,2.167-4.166,4.376-4.166,6.985,0,2.9,2.062,5.533,7.427,5.533h3.85c.358,0,.652-.4.652-.968,0-.526-.295-.9-.652-.9h-3.766c-3.913,0-5.555-1.83-5.555-3.682,0-2.462,1.725-4.671,5.555-7.006,1.389-.842,4.145-2.251,5.891-3.03a.655.655,0,0,0,.379-.652c0-.61-.421-1.157-.863-1.157-.5,0-5.47,2.756-6.249,3.2-.295.168-.568.358-.842.526l-1.389-3.955a.643.643,0,0,0-.673-.4m58.869,0c-.568,0-.9.274-.9.61v17.442c0,.358.337.673.9.673.547,0,.884-.274.884-.631V-32.394c0-.337-.337-.61-.884-.61m108.965.021c-.589,0-.947.295-.947.652v10.625c0,5.05,2.651,7.175,8.079,7.175a16.511,16.511,0,0,0,1.873-.147c.295-.042.5-.337.5-.757,0-.568-.231-1.073-.652-1.073h-.084a11.169,11.169,0,0,1-1.515.105c-3.7,0-6.312-.863-6.312-5.491V-32.331c0-.358-.379-.652-.947-.652m-233.332.063c-.589,0-.968.295-1.01.673-.21,2.23-1.557,9.762-2.1,12.582v.105c0,.421.463.736,1.052.736.5,0,.778-.21.842-.5.168-.757.379-1.915.631-3.219,1.073-1.41,2.378-2.546,3.514-2.546.968,0,1.41.358,1.41,1.809v3.892c0,3.514,1.389,4.944,4.271,4.944,3.324,0,5.155-2.146,5.849-7.09v-.084c0-.421-.4-.778-1.094-.778a.7.7,0,0,0-.757.5c-.526,3.661-1.725,5.533-3.977,5.533-1.788,0-2.378-.968-2.378-3.135V-24c0-2.293-1.283-3.072-2.588-3.072a5.5,5.5,0,0,0-3.829,2.041c.5-2.9.989-5.954,1.094-7.217v-.063c0-.337-.379-.61-.926-.61m278.946,0c-.379,0-.968.147-.968.61,0,.358.168.989.652.989.379,0,.968-.168.968-.673,0-.379-.168-.926-.652-.926m-126.428.105-6.922.316c-.379.021-.673.379-.673.947,0,.547.273.968.631.947l7.658-.316c3.934,0,5.66,2.209,5.66,6.712,0,4.587-4.5,7.111-8.205,7.111h-.547c-.337,0-.61.358-.61.863s.231,1.031.673,1.031h.526c5.2,0,10.12-3.261,10.12-9.089,0-5.344-2.083-8.311-7.658-8.5l-.652-.021m14.16,0c-.589,0-.968.295-.968.652v11.172c0,2.819,1.157,5.407,3.514,6.059a1.631,1.631,0,0,0,1.641-.379l3.64-3.493a.606.606,0,0,0,.189-.442c0-.646-.938-1.524-1.515-.947L-139.27-17.2a.541.541,0,0,1-.61.168c-1.157-.379-1.978-1.936-1.978-4.145V-32.163c0-.358-.4-.652-.947-.652m106.609.147c-.4,0-.947.147-.947.631,0,.379.147.968.652.968.358,0,.947-.189.947-.673,0-.379-.147-.926-.652-.926m-11.866.105a.48.48,0,0,0-.231.063L-55.3-28.67c-1.6.863-2.9,2.125-2.9,3.955v.484c0,1.746.736,2.735,2.8,3.85a89.934,89.934,0,0,1,8.963,5.428.475.475,0,0,0,.316.105,1.231,1.231,0,0,0,.989-1.2.638.638,0,0,0-.252-.526A83.591,83.591,0,0,0-54.4-21.9c-1.431-.736-1.873-1.473-1.873-2.335v-.379c0-1.178.652-1.894,2.251-2.756l6.543-3.577a.54.54,0,0,0,.274-.526c0-.526-.421-1.094-.863-1.094m36.925.147c-.337,0-.61.337-.61.863s.273.863.61.863h5.87v3.619h-5.87c-.337,0-.61.358-.61.863,0,.526.273.884.61.884h5.87v3.577A12.774,12.774,0,0,0-8.634-22.3c-3.514,0-5.071,2.062-5.071,3.934,0,1.746.968,3.977,5.113,3.977,3.619,0,5.176-2.041,5.176-4.545v-.4c.337.147,1.978.968,2.167.968.421,0,.757-.547.757-1.073a.7.7,0,0,0-.4-.694c-.8-.337-1.662-.694-2.525-1.01V-31.385a.983.983,0,0,0-1.073-1.031h-6.649m2.377,16.39c-2.693,0-3.261-1.431-3.261-2.335,0-1.3,1.389-2.335,3.261-2.335a10.989,10.989,0,0,1,3.493.652v.842c0,1.788-1.052,3.177-3.493,3.177M5.968-32.247c-.358,0-.631.358-.631.9s.273.9.631.9h7.89c.358,0,.652-.358.652-.9s-.295-.9-.652-.9H5.968m-128.827.189c-.358,0-.652.379-.652.947s.295.926.652.926l12.182-.063q.252,0,.252.063t-.252.126c-7.722,2.146-10.415,5.113-10.415,8.563,0,2.546,1.557,5.365,5.618,6.375.568.189.989-.473.989-1.136a.718.718,0,0,0-.463-.736c-2.84-.884-4.166-2.567-4.166-4.587,0-3.261,2.988-5.681,13.423-8.647.358-.105.484-.316.484-.757,0-.5-.231-1.073-.8-1.073h-16.853m-54.072.147c-.358,0-.652.379-.652.947s.295.926.652.926h5.007c.189,0,.316.084.316.189a.366.366,0,0,1-.126.231l-1.178,1.3a.626.626,0,0,0-.105.316c0,.567,1.026,1.2,1.515.631l2.314-2.9a.517.517,0,0,0,.105-.358,1.618,1.618,0,0,0-1.431-1.283h-6.417m90.955.568c-.316,0-.926.358-.926.736,0,.358.337.947.715.947.337,0,.947-.316.947-.715,0-.337-.358-.968-.736-.968m-15.065.021c-.379,0-.736.673-.736.968,0,.379.61.715.947.715.4,0,.736-.568.736-.926,0-.4-.589-.757-.947-.757M-.26-30.059c-.295,0-1.031.295-1.031.757,0,.21.295,1.052.736,1.052.231,0,1.01-.316,1.01-.736,0-.252-.295-1.073-.715-1.073m-329.358.4c-.463,0-.757.252-.757.568,0,.463.084.926.105,1.389h-1.936c-.316,0-.568.316-.568.778,0,.5.253.8.568.8h2.02c.147,3.387.21,8.163.231,10.962,0,.316.316.568.8.568s.821-.252.821-.568c-.021-2.651-.063-7.511-.21-10.962h4.671v3.24c0,.316.295.547.757.547s.757-.231.757-.547v-3.24c2.588.084,3.6,1.6,3.6,3.156a4.45,4.45,0,0,1-1.389,3.093.577.577,0,0,0-.168.379.873.873,0,0,0,.926.9.6.6,0,0,0,.4-.189,5.714,5.714,0,0,0,1.894-4.145c0-2.861-2.041-4.755-5.26-4.776v-1.41c0-.295-.295-.526-.757-.526s-.757.231-.757.526v1.41h-4.755c-.042-.547-.063-1.031-.105-1.41-.042-.316-.4-.547-.884-.547m312.547.021c-.547,0-.884.273-.884.631v13.97c0,.379.337.652.884.652.568,0,.9-.273.9-.652v-13.97c0-.358-.337-.631-.9-.631m-111.385,1.3c-.694,0-1.052.4-1.052.757a.312.312,0,0,0,.021.147,29.983,29.983,0,0,1,1.031,4.25c.042.316.337.547.8.547.568,0,1.052-.274,1.052-.673v-.063a26.383,26.383,0,0,0-1.115-4.566.706.706,0,0,0-.736-.4m141.7.4-.229,0-1.01.021-7.175.379c-.4.021-.673.358-.673.947,0,.5.274.989.652.968l7.3-.421c.252-.021.5-.021.757-.021,3.324,0,4.965,1.557,4.965,4.166,0,3.135-1.873,5.092-7.49,5.576-.337.021-.61.337-.61.842,0,.589.295,1.031.694,1.031h.021c7.406,0,9.363-3.7,9.363-7.448,0-3.7-2.276-6.04-6.567-6.041m-46.6,1.012a.785.785,0,0,0-.694.842.765.765,0,0,0,.694.778h6.375q.253,0,.252.126c0,.337-2.377,1.326-2.882,1.494a1.987,1.987,0,0,0-1.515,2v.126h-5.786a.815.815,0,0,0-.715.842.829.829,0,0,0,.715.884h5.786v2.693a.907.907,0,0,1-.884.9h-.947a.756.756,0,0,0-.673.842.8.8,0,0,0,.673.884h1.473a2.154,2.154,0,0,0,2.23-2.23v-3.093h5.891a.829.829,0,0,0,.736-.884.815.815,0,0,0-.736-.842h-5.891V-21.9c0-.358.231-.652.715-.884.947-.337,4.376-1.662,4.376-3.135a1.108,1.108,0,0,0-1.22-1.01h-7.974m-362.727.673a.867.867,0,0,0-.736.9.875.875,0,0,0,.736.926h3.324c-.042,3.64-.821,6.207-3.093,7.427a.773.773,0,0,0-.4.715,1.03,1.03,0,0,0,.989.989.594.594,0,0,0,.316-.084c2.861-1.536,3.955-4.839,4.019-9.047h4v6.985a2.551,2.551,0,0,0,2.672,2.672h3.85a.874.874,0,0,0,.778-.926.86.86,0,0,0-.778-.884h-3.472a1.108,1.108,0,0,1-1.22-1.22V-24.42h4.713a.874.874,0,0,0,.757-.926.866.866,0,0,0-.757-.9h-15.7m168.319,0a.867.867,0,0,0-.736.9.874.874,0,0,0,.736.926h3.324c-.042,3.64-.821,6.207-3.093,7.427a.773.773,0,0,0-.4.715,1.03,1.03,0,0,0,.989.989.594.594,0,0,0,.316-.084c2.861-1.536,3.955-4.839,4.019-9.047h4v6.985a2.551,2.551,0,0,0,2.672,2.672h3.85a.874.874,0,0,0,.778-.926.86.86,0,0,0-.778-.884h-3.472a1.108,1.108,0,0,1-1.22-1.22V-24.42h4.713a.874.874,0,0,0,.757-.926.866.866,0,0,0-.757-.9h-15.7m141.6.168c-.4,0-.736.589-.736.947,0,.379.61.736.947.736.358,0,.715-.652.715-.968,0-.4-.61-.715-.926-.715m-14.665.021c-.337,0-.947.316-.947.715,0,.316.379.968.736.968s.926-.358.926-.736c0-.358-.316-.947-.715-.947m-180.837.21c-.358,0-.652.358-.652.926,0,.547.295.926.652.926h7.28c.358,0,.631-.379.631-.926,0-.568-.274-.926-.631-.926h-7.28M-179.9-22.8a.739.739,0,0,0-.715.358,6.486,6.486,0,0,0-.926,3.093c0,2.23,1.094,4.25,5.912,4.25h6.081c.379,0,.652-.358.652-.9,0-.568-.274-.926-.652-.926h-5.765c-2.988,0-4.271-.884-4.271-2.735,0-1.241.8-2.083.8-2.42,0-.4-.589-.715-1.115-.715m-104.61,1.557a.7.7,0,0,0-.61.295,5.4,5.4,0,0,0-.842,2.651c0,1.809,1.347,3.514,5.744,3.514h3.43c.358,0,.652-.358.652-.926,0-.547-.295-.9-.652-.9h-3.219c-3.514,0-4.082-1.052-4.082-2,0-1.031.652-1.62.652-1.936,0-.358-.589-.694-1.073-.694m-76.122,3.892c-.337,0-.947.316-.947.694,0,.358.337.968.715.968.358,0,.989-.316.989-.715,0-.358-.358-.947-.757-.947m168.319,0c-.337,0-.947.316-.947.694,0,.358.337.968.715.968.358,0,.989-.316.989-.715,0-.358-.358-.947-.757-.947m-181.006.463c-.442,0-.694.589-.694.947,0,.442.61.694.989.694.421,0,.673-.589.673-.947,0-.442-.61-.694-.968-.694m168.319,0c-.442,0-.694.589-.694.947,0,.442.61.694.989.694.421,0,.673-.589.673-.947,0-.442-.61-.694-.968-.694M-366.942-39.72a7.124,7.124,0,0,1,3.662.989h9.26l.052.531a7.4,7.4,0,0,1,3.521-.868,7.141,7.141,0,0,1,4.776,1.767h1.41a6.685,6.685,0,0,1,6.621,6.522,6.57,6.57,0,0,1,1.266-1.421v-2.891l6.757-.568a7.322,7.322,0,0,1,2.257.351l4.244-.33a6.763,6.763,0,0,1,5.662,2.916q.479.206.928.451c.025-.2.046-.385.06-.54a6.837,6.837,0,0,1,6.983-6.11,6.706,6.706,0,0,1,6.924,6.477,8.223,8.223,0,0,1,4.45,4.212l.565-.048a7.376,7.376,0,0,1-.35-2.263,6.732,6.732,0,0,1,5.965-6.87,7.068,7.068,0,0,1,4.559-1.613,7.1,7.1,0,0,1,4.53,1.578h2.876a6.512,6.512,0,0,1,4.838,2.121,6.487,6.487,0,0,1,4.011-1.939,7.086,7.086,0,0,1,4.827-1.8,7.141,7.141,0,0,1,4.776,1.767h1.41a6.71,6.71,0,0,1,6.631,6.908,11.94,11.94,0,0,1,2.609,1.66q.148-.19.3-.378l-.626-1.722-.042-1.246c0-4.143,3.744-6.926,7.241-6.926h4.12l.939,1.851c2.493-1.22,3.17-1.22,4.093-1.22a6.591,6.591,0,0,1,2.966.7,6.686,6.686,0,0,1,4.146-1.44h11.866a6.691,6.691,0,0,1,5.3,2.639,6.59,6.59,0,0,1,4.964-2.26h3.3a7.091,7.091,0,0,1,3.663-.989,7.124,7.124,0,0,1,3.662.989h7.836A7.41,7.41,0,0,1-185.116-39a7.005,7.005,0,0,1,4.93,1.954,6.5,6.5,0,0,1,3.255-.86h6.417a7.159,7.159,0,0,1,2.854.6,6.6,6.6,0,0,1,3.44-1.182L-157-38.82l.886.029a14.969,14.969,0,0,1,7.963,2.322,7.066,7.066,0,0,1,5.351-2.346,6.732,6.732,0,0,1,6.947,6.652v5.8c.149,0,.3.007.444.017l-.094-1.234a6.815,6.815,0,0,1,6.727-6.751,6.553,6.553,0,0,1,5.922-3.731h16.853a6.664,6.664,0,0,1,3.41.924,6.6,6.6,0,0,1,2.842-.058,7.559,7.559,0,0,1,.849-.4l.788-1.477,4.462-.484h6l.269,2.218q.1.051.2.106a6.533,6.533,0,0,1,1.206-.114A6.38,6.38,0,0,1-82-35.968a6.965,6.965,0,0,1,5.849-3.016A6.732,6.732,0,0,1-69.2-32.331v9.924q.145,0,.312,0l.4-.055,1.111-.05a6.575,6.575,0,0,1,3.526,1,10.285,10.285,0,0,1-.352-2.726c0-2.714.787-6.878,6.055-9.72l8.322-4.549,1.764-.063A6.866,6.866,0,0,1-42.39-35.4q.145-.1.3-.185a6.964,6.964,0,0,1,5.9-3.08,6.562,6.562,0,0,1,2.448.467,7.375,7.375,0,0,1,3.212-.72,6.643,6.643,0,0,1,1.55.182l.107-.287,5.013-.484a6.926,6.926,0,0,1,6.252,3.891,7.666,7.666,0,0,1,1.116,0,6.484,6.484,0,0,1,5.361-2.8h6.707a7.139,7.139,0,0,1,3.182-.779,6.308,6.308,0,0,1,4.257,1.648,6.51,6.51,0,0,1,2.959-.7h7.89a6.67,6.67,0,0,1,6.619,6.193A11.43,11.43,0,0,1,25.812-21.9c0,6.5-4.036,13.448-15.363,13.448a6.748,6.748,0,0,1-6.677-6.258A6.73,6.73,0,0,1,.538-12.612a10.943,10.943,0,0,1-9.13,4.228,13.256,13.256,0,0,1-4.977-.891,7.177,7.177,0,0,1-3.5.891,6.745,6.745,0,0,1-6.747-5.3,8.133,8.133,0,0,1-7.665,5.175h-1.473A6.736,6.736,0,0,1-39.47-13.9a7.131,7.131,0,0,1-6.657,5.049h-2.105l-1.959-1.421a86.926,86.926,0,0,0-8.078-4.84,14.006,14.006,0,0,1-2.481-1.642,7.821,7.821,0,0,1,.11,1.314v5.2L-66.3-8.739a22.732,22.732,0,0,1-2.721.208c-4.844,0-8.616-1.487-11.031-4.2a6.8,6.8,0,0,1-5.99,3.607h-1.418l-.834-.387q-.4-.124-.794-.266a6.93,6.93,0,0,1-4.339,1.515,6.966,6.966,0,0,1-4.353-1.516q-.361.129-.729.242l-.777.39-1.567.021a6.839,6.839,0,0,1-6.8-6.863v-.67a6.867,6.867,0,0,1-1.515-4.317,6.918,6.918,0,0,1,.278-1.948c-.833.3-1.516.576-2.077.822l1.449.451,1.03,5.389A6.92,6.92,0,0,1-115.306-9.1h-.972l-1.091-.328a12.626,12.626,0,0,1-8.8-7.35,7.6,7.6,0,0,1-1.491.145H-128.9l-1.834,2.072-3.728,3.579a7.427,7.427,0,0,1-5.248,2.134h-.658l-1.189-.227a10.59,10.59,0,0,1-5.97-4.211A16.726,16.726,0,0,1-158.774-9.2a7.142,7.142,0,0,1-5.574-2.443,6.519,6.519,0,0,1-5.2,2.548h-6.081a16.325,16.325,0,0,1-5.033-.718,7.045,7.045,0,0,1-4.456,1.539,7.009,7.009,0,0,1-4.877-1.907,6.9,6.9,0,0,1-4.07.318,6.992,6.992,0,0,1-4.6,1.716,7.031,7.031,0,0,1-4.181-1.368,6.413,6.413,0,0,1-1.857.274,7.187,7.187,0,0,1-3.4-.845,6.647,6.647,0,0,1-3.988,1.329h-3.85a8.647,8.647,0,0,1-6.106-2.459,12.317,12.317,0,0,1-1.745,1.135l-1.329.713-1.824.084a6.962,6.962,0,0,1-4.7-1.819,6.485,6.485,0,0,1-4.833,2.135h-3.85a14.536,14.536,0,0,1-9.451-2.948q-.213.258-.439.5L-252-9.478l-3.055.168a7.158,7.158,0,0,1-7.115-7.01v-.547a10.323,10.323,0,0,0-1.038.691l-1.6,1.206-2.574.189a7.761,7.761,0,0,1-2.764-.5,6.7,6.7,0,0,1-6.64,6.5h-3.43a13.711,13.711,0,0,1-7.8-2.034l-1.621.141a7.381,7.381,0,0,1-3.535-.88,10.437,10.437,0,0,1-7.7,3.11A9.8,9.8,0,0,1-309.606-13l-1.938.173a7.344,7.344,0,0,1-3.864-1.07l-1.135,1.112-2.849.189a7.061,7.061,0,0,1-2.926-.624l.032,4.053-6.868.568a6.835,6.835,0,0,1-5.441-2.582l-1.561,1.7-3.055.168a7.158,7.158,0,0,1-7.115-7.01v-.547a10.322,10.322,0,0,0-1.038.691l-1.6,1.206-2.574.189A7.819,7.819,0,0,1-353.384-15a6.889,6.889,0,0,1-.941.962,7.2,7.2,0,0,1-6.537,4.348,6.427,6.427,0,0,1-1.52-.18,6.992,6.992,0,0,1-4.6,1.716,7.031,7.031,0,0,1-4.181-1.368,6.413,6.413,0,0,1-1.857.274,7.187,7.187,0,0,1-3.4-.845,6.647,6.647,0,0,1-3.988,1.329h-3.85a8.647,8.647,0,0,1-6.106-2.459,12.319,12.319,0,0,1-1.745,1.135l-1.329.713-1.824.084a7,7,0,0,1-6.989-6.989v-3.708l1.156-.738a7.009,7.009,0,0,1-1.724-4.622,7,7,0,0,1,.876-3.4,6.982,6.982,0,0,1-.9-3.436,6.871,6.871,0,0,1,6.8-6.926h11.866a6.691,6.691,0,0,1,5.3,2.639,6.59,6.59,0,0,1,4.964-2.26h3.3A7.091,7.091,0,0,1-366.942-39.72Zm322.522,16.6a6.674,6.674,0,0,1-1.086-2.064l-1.212.662Q-45.537-23.822-44.421-23.116Zm-112.215-1.8-.245-.007-6.78.31a7.3,7.3,0,0,1-2.122-.3L-167.6-22.64a6.52,6.52,0,0,1,3.082,2.057,6.478,6.478,0,0,1,5.152-2.516c1.516,0,2.753-.623,2.753-1.111C-156.611-24.488-156.621-24.721-156.636-24.914Zm-77.171,2.626a7,7,0,0,1-.547-1.62c-.716.362-1.421.734-2.011,1.063A6.556,6.556,0,0,1-233.807-22.288Z" transform="translate(837.014 -167.335)"/></g></svg>